<svg width="162" height="32" viewBox="0 0 162 32" fill="none" xmlns="http://www.w3.org/2000/svg">
<g id="logo">
<path id="HEAdPHONEs" fill-rule="evenodd" clip-rule="evenodd" d="M130.988 16.9879V22.9999H128.162V16.9879C128.162 13.9819 130.466 11.3179 133.544 11.3179C136.622 11.3179 138.926 13.9819 138.926 16.9879V22.9999H136.1V16.9879C136.1 15.5479 135.056 14.1619 133.544 14.1619C132.032 14.1619 130.988 15.5479 130.988 16.9879ZM72.3981 22.9999V20.4259H77.5281V22.9999H80.3721V17.0239C80.3721 13.8739 77.9421 11.3359 74.9541 11.3359C71.9661 11.3359 69.5361 13.8739 69.5361 17.0239V22.9999H72.3981ZM50.3121 18.7339V22.9999H47.4501V11.6059H50.3121V15.8719H54.7401V11.6059H57.6021V22.9999H54.7401V18.7339H50.3121ZM68.6361 20.1379V22.9999H63.9201C60.8241 22.9999 58.5021 20.3179 58.5021 17.3119C58.5021 14.2879 60.8241 11.6059 63.9201 11.6059H68.6361V14.4679H63.9201C62.9661 14.4679 62.1381 15.0619 61.7061 15.8719H66.4941V18.7339H61.7061C62.1381 19.5619 62.9661 20.1379 63.9201 20.1379H68.6361ZM72.3981 17.5819H77.5281V17.0239C77.5281 15.4579 76.3761 14.1799 74.9541 14.1799C73.5501 14.1799 72.3981 15.4579 72.3981 17.0239V17.5819ZM86.6901 22.9999C89.6781 22.9999 92.1081 20.4439 92.1081 17.3119C92.1081 14.1619 89.6781 11.6059 86.6901 11.6059H81.2721V22.9999H86.6901ZM84.1341 20.1379H86.6901C88.1121 20.1379 89.2641 18.8779 89.2641 17.3119C89.2641 15.7459 88.1121 14.4679 86.6901 14.4679H84.1341V20.1379ZM95.8341 22.9999V20.6059H99.3261C101.774 20.6059 103.592 18.5359 103.592 16.1599C103.592 13.7839 101.774 11.6959 99.3261 11.6959H93.0081V22.9999H95.8341ZM95.8341 17.7799H99.3261C100.19 17.7799 100.766 16.9519 100.766 16.1599C100.766 15.3679 100.19 14.5219 99.3261 14.5219H95.8341V17.7799ZM107.354 22.9999V18.7339H111.782V22.9999H114.644V11.6059H111.782V15.8719H107.354V11.6059H104.492V22.9999H107.354ZM127.262 17.3659C127.262 20.6059 124.706 23.3779 121.412 23.3779C118.118 23.3779 115.544 20.6059 115.544 17.3659C115.544 14.1079 118.118 11.3539 121.412 11.3539C124.706 11.3539 127.262 14.1079 127.262 17.3659ZM121.412 20.5339C119.666 20.5339 118.37 19.0399 118.37 17.3659C118.37 15.6739 119.684 14.1799 121.412 14.1799C123.14 14.1799 124.436 15.6739 124.436 17.3659C124.436 19.0399 123.14 20.5339 121.412 20.5339ZM149.96 22.9999V20.1379H145.244C144.29 20.1379 143.462 19.5619 143.03 18.7339H147.818V15.8719H143.03C143.462 15.0619 144.29 14.4679 145.244 14.4679H149.96V11.6059H145.244C142.148 11.6059 139.826 14.2879 139.826 17.3119C139.826 20.3179 142.148 22.9999 145.244 22.9999H149.96ZM156.53 20.1019C155.954 21.6319 154.352 22.9999 152.66 22.9999H150.86V20.1739H152.66C153.128 20.1739 153.722 19.5079 153.866 19.1119L155.558 14.5939C156.152 12.9919 157.862 11.6959 159.59 11.6959H161.57V14.5219H159.59C159.05 14.5219 158.384 15.0979 158.204 15.5839L156.53 20.1019Z" fill="white"/>
<path id="Polygon" fill-rule="evenodd" clip-rule="evenodd" d="M17 0.763916L33.3925 12.6737L27.1311 31.9443H6.86891L0.607544 12.6737L17 0.763916ZM31.041 13.437L17 3.23598L2.95802 13.437L8.32102 29.944H25.678L31.041 13.437Z" fill="white"/>
<path id="Polygon_2" fill-rule="evenodd" clip-rule="evenodd" d="M17 6.76392L27.6861 14.5278L23.6044 27.0902H10.3956L6.31384 14.5278L17 6.76392ZM25.334 15.291L17 9.23598L8.66498 15.291L11.848 25.09H22.151L25.334 15.291Z" fill="#FF6565"/>
<path id="Polygon_3" fill-rule="evenodd" clip-rule="evenodd" d="M17 14L20.8042 16.7639L19.3511 21.2361H14.6489L13.1958 16.7639L17 14Z" fill="white"/>
</g>
</svg>
